<svg xmlns="http://www.w3.org/2000/svg" viewBox="0 0 512 512">
  <rect width="512" height="512" fill="#ffffff"/>
  <g transform="translate(76,76) scale(0.703125)">
    <circle cx="256" cy="256" r="256" fill="#189B8B"/>
    <rect x="163" y="115" width="186" height="216" rx="20" fill="none" stroke="#fff" stroke-width="24"/>
    <rect x="206" y="90" width="100" height="42" rx="12" fill="#fff"/>
    <circle cx="256" cy="104" r="10" fill="#189B8B"/>
    <g>
      <rect x="192" y="156" width="38" height="38" rx="8" fill="#fff"/>
      <path d="M200 175l9 9 17-19" stroke="#189B8B" stroke-width="9" fill="none" stroke-linecap="round" stroke-linejoin="round"/>
      <rect x="248" y="168" width="72" height="13" rx="6.5" fill="#fff"/>
    </g>
    <g transform="translate(0,52)">
      <rect x="192" y="156" width="38" height="38" rx="8" fill="#fff"/>
      <path d="M200 175l9 9 17-19" stroke="#189B8B" stroke-width="9" fill="none" stroke-linecap="round" stroke-linejoin="round"/>
      <rect x="248" y="168" width="72" height="13" rx="6.5" fill="#fff"/>
    </g>
    <g transform="translate(0,104)">
      <rect x="192" y="156" width="38" height="38" rx="8" fill="#fff"/>
      <path d="M200 175l9 9 17-19" stroke="#189B8B" stroke-width="9" fill="none" stroke-linecap="round" stroke-linejoin="round"/>
      <rect x="248" y="168" width="72" height="13" rx="6.5" fill="#fff"/>
    </g>
    <g fill="#fff">
      <circle cx="118" cy="298" r="37"/>
      <path d="M64 416v-22a54 54 0 0 1 108 0v22z"/>
      <circle cx="394" cy="298" r="37"/>
      <path d="M340 416v-22a54 54 0 0 1 108 0v22z"/>
      <rect x="192" y="298" width="128" height="70" rx="24"/>
      <path d="M228 356l-16 34 40-16z"/>
      <rect x="168" y="392" width="176" height="24" rx="12"/>
    </g>
    <g fill="#189B8B">
      <circle cx="226" cy="333" r="9"/>
      <circle cx="256" cy="333" r="9"/>
      <circle cx="286" cy="333" r="9"/>
    </g>
  </g>
</svg>
